<svg width="18" height="16" viewBox="0 0 18 16" fill="none" xmlns="http://www.w3.org/2000/svg">
<path d="M3 0.5C2.20435 0.5 1.44129 0.81607 0.87868 1.37868C0.31607 1.94129 0 2.70435 0 3.5V3.8015L9 8.648L18 3.803V3.5C18 2.70435 17.6839 1.94129 17.1213 1.37868C16.5587 0.81607 15.7956 0.5 15 0.5H3ZM18 5.5055L9.3555 10.16C9.24624 10.2188 9.12409 10.2496 9 10.2496C8.87591 10.2496 8.75376 10.2188 8.6445 10.16L0 5.5055V12.5C0 13.2956 0.31607 14.0587 0.87868 14.6213C1.44129 15.1839 2.20435 15.5 3 15.5H15C15.7956 15.5 16.5587 15.1839 17.1213 14.6213C17.6839 14.0587 18 13.2956 18 12.5V5.5055Z" fill="#EC1B2E"/>
</svg>
