<svg width="16" height="14" viewBox="0 0 16 14" fill="none" xmlns="http://www.w3.org/2000/svg">
<path fill-rule="evenodd" clip-rule="evenodd" d="M15.5002 6.99996C15.5002 7.2486 15.4014 7.48706 15.2256 7.66288C15.0498 7.83869 14.8114 7.93746 14.5627 7.93746H3.70084L7.72646 11.9612C7.81363 12.0484 7.88277 12.1519 7.92994 12.2657C7.97712 12.3796 8.00139 12.5017 8.00139 12.625C8.00139 12.7482 7.97712 12.8703 7.92994 12.9842C7.88277 13.0981 7.81363 13.2015 7.72646 13.2887C7.6393 13.3759 7.53582 13.445 7.42193 13.4922C7.30804 13.5394 7.18598 13.5636 7.06271 13.5636C6.93944 13.5636 6.81738 13.5394 6.70349 13.4922C6.58961 13.445 6.48613 13.3759 6.39896 13.2887L0.773961 7.66371C0.686655 7.57663 0.617387 7.47317 0.570125 7.35928C0.522863 7.24538 0.498535 7.12328 0.498535 6.99996C0.498535 6.87665 0.522863 6.75455 0.570125 6.64065C0.617387 6.52675 0.686655 6.4233 0.773961 6.33621L6.39896 0.711214C6.575 0.535176 6.81376 0.436279 7.06271 0.436279C7.31167 0.436279 7.55042 0.535176 7.72646 0.711214C7.9025 0.887251 8.00139 1.12601 8.00139 1.37496C8.00139 1.62392 7.9025 1.86268 7.72646 2.03871L3.70084 6.06246H14.5627C14.8114 6.06246 15.0498 6.16124 15.2256 6.33705C15.4014 6.51287 15.5002 6.75132 15.5002 6.99996Z" fill="white"/>
</svg>
