<svg width="60" height="60" viewBox="0 0 60 60" fill="none" xmlns="http://www.w3.org/2000/svg">
<path fill-rule="evenodd" clip-rule="evenodd" d="M52.5036 5.50294C52.5036 5.00145 52.2237 4.46796 51.8236 4.20709C51.5332 4.01772 49.7667 4.00109 29.9896 4.00109C9.45798 4.00109 8.10845 3.95433 7.83799 4.47168C7.79641 4.5512 7.78033 4.64406 7.724 4.75245C7.34831 5.47544 7.45747 5.78456 9.06561 8.5545C12.1592 13.8826 13.8167 16.7665 13.8167 16.8205C13.8167 16.851 10.9417 16.8758 7.4277 16.8758C1.13881 16.8758 1.03342 16.8799 0.705214 17.1368C0.307291 17.4483 -7.05719e-05 18.0017 -7.05719e-05 18.4064C-7.05719e-05 18.678 0.760103 20.0668 3.16472 24.1882C3.68612 25.0819 4.84534 27.0787 5.7408 28.6256C6.63625 30.1724 8.33157 33.0974 9.50825 35.1254C10.6849 37.1535 13.0168 41.1753 14.69 44.0628C16.3634 46.9502 17.9992 49.7626 18.325 50.3126C18.6509 50.8626 19.47 52.2733 20.145 53.4476C21.4696 55.7514 21.7082 56 22.5952 56C22.9809 56 23.1992 55.9149 23.4775 55.6563C23.681 55.4671 24.9024 53.4844 26.1916 51.2501C29.7375 45.1051 29.9465 44.7502 30.0172 44.7506C30.0533 44.7509 30.3647 45.2431 30.7092 45.8443C34.2911 52.0957 36.2422 55.3701 36.5557 55.6563C36.8491 55.924 37.0564 56 37.4936 56C38.3106 56 38.6104 55.6608 40.1451 53.0001C41.6881 50.3246 43.0442 47.9846 47.6006 40.1342C49.4133 37.011 52.0559 32.4549 53.4729 30.0094C54.89 27.564 56.789 24.2975 57.6927 22.7507C60.1024 18.6263 60.1117 18.6067 59.9324 18.0113C59.851 17.7407 59.6114 17.3744 59.4001 17.1976L59.016 16.8758H52.6061C47.5296 16.8758 46.2091 16.8433 46.2573 16.7196C46.3162 16.5686 47.1386 15.1401 50.7861 8.85287C51.9879 6.78129 52.5036 5.77531 52.5036 5.50294ZM20.6623 14.4761C19.9024 13.1597 19.1524 11.8392 18.9956 11.5417L18.7106 11.0009H30.029H41.3475L40.9278 11.7324C40.6971 12.1348 39.9429 13.4541 39.2521 14.6641L37.996 16.8643L30.02 16.8669L22.044 16.8697L20.6623 14.4761ZM12.0632 25.4381C11.7382 24.8882 11.4038 24.3107 11.3201 24.1549L11.1679 23.8717L14.5766 23.9049L17.9853 23.9382L21.9356 30.7403C24.3814 34.9519 25.8573 37.6161 25.811 37.736C25.7225 37.9656 22.7343 43.1404 22.6024 43.2926C22.5523 43.3504 22.203 42.8723 21.8259 42.2302C20.6304 40.1942 17.9509 35.5864 15.2597 30.938C13.8266 28.4631 12.3883 25.9881 12.0632 25.4381ZM30.0414 30.4232C29.9641 30.4692 26.4987 24.5943 26.3083 24.0944C26.2301 23.8891 26.4577 23.8757 30.02 23.8757C33.2407 23.8757 33.8048 23.9024 33.7469 24.0525C33.7093 24.1499 33.0152 25.3733 32.2044 26.7712C31.3936 28.1692 30.5943 29.5516 30.4278 29.8432C30.2615 30.1347 30.0876 30.3957 30.0414 30.4232ZM38.6198 29.8131C40.3279 26.8569 41.8061 24.3117 41.9047 24.1569C42.0833 23.8768 42.0972 23.8757 45.4232 23.8757C48.535 23.8757 48.7567 23.8904 48.679 24.0915C48.6018 24.2918 47.6404 25.9654 44.2076 31.8755C43.4689 33.1474 41.693 36.2129 40.2612 38.6879C38.8296 41.1628 37.6147 43.2335 37.5616 43.2895C37.4653 43.3909 34.165 37.8608 34.165 37.598C34.165 37.5219 34.4686 36.9485 34.8397 36.3238C35.2107 35.6991 36.9118 32.7692 38.6198 29.8131Z" fill="#EC1B2E"/>
</svg>
