<svg width="214" height="31" viewBox="0 0 214 31" fill="none" xmlns="http://www.w3.org/2000/svg">
<path d="M12.6 10H1.358V0.199999H3.08V8.39H6.118V0.199999H7.84V8.39H10.878V0.199999H12.6V10ZM17.319 10H15.597V0.199999H17.319V4.848L21.183 0.199999H23.255L19.223 4.764L23.507 10H21.323L17.319 4.946V10ZM24.0084 5.1C24.0084 3.672 24.4844 2.47267 25.4364 1.502C26.407 0.531333 27.6297 0.0459996 29.1044 0.0459996C30.579 0.0459996 31.797 0.512666 32.7584 1.446C33.729 2.38867 34.2144 3.60667 34.2144 5.1C34.2144 6.56533 33.729 7.774 32.7584 8.726C31.7877 9.678 30.5697 10.154 29.1044 10.154C27.6297 10.154 26.4117 9.68733 25.4504 8.754C24.489 7.82067 24.0084 6.60267 24.0084 5.1ZM25.8284 5.1C25.8284 6.08933 26.141 6.91067 26.7664 7.564C27.3917 8.21733 28.171 8.544 29.1044 8.544C30.1124 8.544 30.9104 8.21733 31.4984 7.564C32.0957 6.91067 32.3944 6.08933 32.3944 5.1C32.3944 4.10133 32.077 3.27533 31.4424 2.622C30.8077 1.978 30.0284 1.656 29.1044 1.656C28.1617 1.656 27.3777 1.978 26.7524 2.622C26.1364 3.266 25.8284 4.092 25.8284 5.1ZM43.6489 10H41.9409V1.81H39.0849L38.8889 3.658C38.7769 4.778 38.6323 5.73467 38.4549 6.528C38.2776 7.32133 38.0816 7.956 37.8669 8.432C37.6523 8.908 37.3956 9.272 37.0969 9.524C36.8076 9.776 36.5043 9.93467 36.1869 10C35.8789 10.056 35.5196 10.056 35.1089 10L35.1509 8.292C35.3563 8.32 35.5243 8.31067 35.6549 8.264C35.7856 8.21733 35.9396 8.08667 36.1169 7.872C36.3129 7.62933 36.4716 7.30733 36.5929 6.906C36.9289 5.90733 37.1763 4.32533 37.3349 2.16L37.4749 0.199999H43.6489V10ZM47.1142 10H45.3782L49.5222 0.172H51.0342L55.1782 10H53.3442L52.3222 7.494H48.1362L47.1142 10ZM51.6642 5.884L50.2362 2.398L48.7942 5.884H51.6642ZM66.8228 3.042L61.6848 10H60.1728V0.199999H61.8948V7.172L67.0328 0.199999H68.5448V10H66.8228V3.042ZM78.3447 7.76L79.0027 9.048C78.6947 9.37467 78.2513 9.64067 77.6727 9.846C77.1033 10.0513 76.5013 10.154 75.8667 10.154C74.3733 10.154 73.1553 9.692 72.2127 8.768C71.2793 7.844 70.8127 6.62133 70.8127 5.1C70.8127 3.644 71.256 2.43533 72.1427 1.474C73.02 0.522 74.2473 0.0459996 75.8247 0.0459996C77.0753 0.0459996 78.0693 0.377333 78.8067 1.04L78.0367 2.314C77.374 1.87533 76.6367 1.656 75.8247 1.656C74.8913 1.656 74.126 1.96867 73.5287 2.594C72.9313 3.21933 72.6327 4.05467 72.6327 5.1C72.6327 6.12667 72.9453 6.95733 73.5707 7.592C74.2053 8.22667 75.022 8.544 76.0207 8.544C76.8793 8.544 77.654 8.28267 78.3447 7.76ZM88.8065 10H87.0845V1.81H82.7165V10H80.9945V0.199999H88.8065V10ZM92.2778 10H90.5418L94.6858 0.172H96.1978L100.342 10H98.5078L97.4858 7.494H93.2998L92.2778 10ZM96.8278 5.884L95.3998 2.398L93.9578 5.884H96.8278ZM110 10H108.292V5.814H103.812V10H102.09V0.199999H103.812V4.204H108.292V0.199999H110V10ZM119.797 7.76L120.455 9.048C120.147 9.37467 119.703 9.64067 119.125 9.846C118.555 10.0513 117.953 10.154 117.319 10.154C115.825 10.154 114.607 9.692 113.665 8.768C112.731 7.844 112.265 6.62133 112.265 5.1C112.265 3.644 112.708 2.43533 113.595 1.474C114.472 0.522 115.699 0.0459996 117.277 0.0459996C118.527 0.0459996 119.521 0.377333 120.259 1.04L119.489 2.314C118.826 1.87533 118.089 1.656 117.277 1.656C116.343 1.656 115.578 1.96867 114.981 2.594C114.383 3.21933 114.085 4.05467 114.085 5.1C114.085 6.12667 114.397 6.95733 115.023 7.592C115.657 8.22667 116.474 8.544 117.473 8.544C118.331 8.544 119.106 8.28267 119.797 7.76ZM124.169 10H122.447V0.199999H124.169V4.848L128.033 0.199999H130.105L126.073 4.764L130.357 10H128.173L124.169 4.946V10ZM130.858 5.1C130.858 3.672 131.334 2.47267 132.286 1.502C133.257 0.531333 134.479 0.0459996 135.954 0.0459996C137.429 0.0459996 138.647 0.512666 139.608 1.446C140.579 2.38867 141.064 3.60667 141.064 5.1C141.064 6.56533 140.579 7.774 139.608 8.726C138.637 9.678 137.419 10.154 135.954 10.154C134.479 10.154 133.261 9.68733 132.3 8.754C131.339 7.82067 130.858 6.60267 130.858 5.1ZM132.678 5.1C132.678 6.08933 132.991 6.91067 133.616 7.564C134.241 8.21733 135.021 8.544 135.954 8.544C136.962 8.544 137.76 8.21733 138.348 7.564C138.945 6.91067 139.244 6.08933 139.244 5.1C139.244 4.10133 138.927 3.27533 138.292 2.622C137.657 1.978 136.878 1.656 135.954 1.656C135.011 1.656 134.227 1.978 133.602 2.622C132.986 3.266 132.678 4.092 132.678 5.1ZM145.059 10H143.337V0.199999H148.867V1.81H145.059V10ZM149.615 5.1C149.615 3.672 150.091 2.47267 151.043 1.502C152.014 0.531333 153.236 0.0459996 154.711 0.0459996C156.186 0.0459996 157.404 0.512666 158.365 1.446C159.336 2.38867 159.821 3.60667 159.821 5.1C159.821 6.56533 159.336 7.774 158.365 8.726C157.394 9.678 156.176 10.154 154.711 10.154C153.236 10.154 152.018 9.68733 151.057 8.754C150.096 7.82067 149.615 6.60267 149.615 5.1ZM151.435 5.1C151.435 6.08933 151.748 6.91067 152.373 7.564C152.998 8.21733 153.778 8.544 154.711 8.544C155.719 8.544 156.517 8.21733 157.105 7.564C157.702 6.91067 158.001 6.08933 158.001 5.1C158.001 4.10133 157.684 3.27533 157.049 2.622C156.414 1.978 155.635 1.656 154.711 1.656C153.768 1.656 152.984 1.978 152.359 2.622C151.743 3.266 151.435 4.092 151.435 5.1ZM171.473 10H169.765V6.612H168.351L166.153 10H164.221L166.727 6.262C166.204 6.00067 165.784 5.63667 165.467 5.17C165.159 4.70333 165.005 4.162 165.005 3.546C165.005 2.566 165.341 1.75867 166.013 1.124C166.685 0.48 167.693 0.158 169.037 0.158C169.055 0.158 169.466 0.167333 170.269 0.186C170.679 0.195333 171.081 0.199999 171.473 0.199999V10ZM168.197 5.002H169.765V1.81C169.289 1.782 168.929 1.768 168.687 1.768C168.127 1.768 167.674 1.922 167.329 2.23C166.993 2.538 166.825 2.93933 166.825 3.434C166.825 3.84467 166.951 4.19 167.203 4.47C167.464 4.74067 167.795 4.918 168.197 5.002ZM176.958 10.154C176.202 10.154 175.53 10 174.942 9.692C174.364 9.384 173.916 8.98733 173.598 8.502L174.536 7.34C174.844 7.69467 175.213 7.984 175.642 8.208C176.072 8.432 176.482 8.544 176.874 8.544C177.406 8.544 177.84 8.418 178.176 8.166C178.512 7.90467 178.68 7.54533 178.68 7.088C178.68 6.68667 178.526 6.374 178.218 6.15C177.92 5.91667 177.495 5.8 176.944 5.8H175.936V4.19H176.888C177.28 4.19 177.612 4.07333 177.882 3.84C178.162 3.59733 178.302 3.28467 178.302 2.902C178.302 2.51 178.172 2.20667 177.91 1.992C177.658 1.768 177.313 1.656 176.874 1.656C176.081 1.656 175.418 2.01067 174.886 2.72L173.892 1.572C174.228 1.11467 174.681 0.746 175.25 0.465999C175.82 0.186 176.426 0.0459996 177.07 0.0459996C177.966 0.0459996 178.68 0.284 179.212 0.76C179.744 1.236 180.01 1.894 180.01 2.734C180.01 3.14467 179.894 3.546 179.66 3.938C179.436 4.33 179.114 4.64733 178.694 4.89V4.932C179.254 5.072 179.674 5.34733 179.954 5.758C180.244 6.15933 180.388 6.65867 180.388 7.256C180.388 8.124 180.048 8.824 179.366 9.356C178.694 9.888 177.892 10.154 176.958 10.154ZM192.316 10H190.608V0.199999H192.316V10ZM185.61 5.1C185.46 5.1 185.143 5.12333 184.658 5.17V8.376C184.732 8.376 184.882 8.38533 185.106 8.404C185.33 8.41333 185.488 8.418 185.582 8.418C186.87 8.418 187.514 7.844 187.514 6.696C187.514 6.17333 187.35 5.77667 187.024 5.506C186.697 5.23533 186.226 5.1 185.61 5.1ZM182.936 0.199999H184.658V3.56C185.059 3.51333 185.423 3.49 185.75 3.49C186.916 3.49 187.803 3.77 188.41 4.33C189.026 4.88067 189.334 5.65533 189.334 6.654C189.334 7.69933 188.979 8.52533 188.27 9.132C187.57 9.72933 186.604 10.028 185.372 10.028C184.849 10.028 184.396 10.0233 184.014 10.014C183.64 10.0047 183.281 10 182.936 10V0.199999ZM197.037 10H195.315V0.199999H197.037V4.848L200.901 0.199999H202.973L198.941 4.764L203.225 10H201.041L197.037 4.946V10ZM205.396 10H203.66L207.804 0.172H209.316L213.46 10H211.626L210.604 7.494H206.418L205.396 10ZM209.946 5.884L208.518 2.398L207.076 5.884H209.946ZM7.252 28.782L6.16 29.692L3.458 26.528V26.472L6.216 23.308L7.266 24.246L5.32 26.5L7.252 28.782ZM4.312 28.782L3.22 29.692L0.518 26.528V26.472L3.276 23.308L4.326 24.246L2.38 26.5L4.312 28.782ZM16.9757 30H15.2677V21.81H12.4117L12.2157 23.658C12.1037 24.778 11.959 25.7347 11.7817 26.528C11.6043 27.3213 11.4083 27.956 11.1937 28.432C10.979 28.908 10.7223 29.272 10.4237 29.524C10.1343 29.776 9.83099 29.9347 9.51366 30C9.20566 30.056 8.84632 30.056 8.43566 30L8.47766 28.292C8.68299 28.32 8.85099 28.3107 8.98166 28.264C9.11232 28.2173 9.26632 28.0867 9.44366 27.872C9.63966 27.6293 9.79832 27.3073 9.91966 26.906C10.2557 25.9073 10.503 24.3253 10.6617 22.16L10.8017 20.2H16.9757V30ZM20.4409 30H18.7049L22.8489 20.172H24.3609L28.5049 30H26.6709L25.6489 27.494H21.4629L20.4409 30ZM24.9909 25.884L23.5629 22.398L22.1209 25.884H24.9909ZM30.2527 29.986V20.228C31.2607 20.1813 32.2034 20.158 33.0807 20.158C34.1634 20.158 34.9707 20.3727 35.5027 20.802C36.0347 21.2313 36.3007 21.824 36.3007 22.58C36.3007 23.6347 35.834 24.3767 34.9007 24.806V24.834C35.4327 24.974 35.8527 25.24 36.1607 25.632C36.4687 26.0147 36.6227 26.5093 36.6227 27.116C36.6227 28.068 36.296 28.796 35.6427 29.3C34.9894 29.804 34.1027 30.056 32.9827 30.056C31.8627 30.056 30.9527 30.0327 30.2527 29.986ZM33.1927 25.786H31.9747V28.376C32.4134 28.4227 32.7914 28.446 33.1087 28.446C34.3034 28.446 34.9007 27.9747 34.9007 27.032C34.9007 26.6213 34.7514 26.3133 34.4527 26.108C34.154 25.8933 33.734 25.786 33.1927 25.786ZM33.0527 21.768C32.642 21.768 32.2827 21.782 31.9747 21.81V24.288H33.1367C33.5754 24.288 33.9254 24.176 34.1867 23.952C34.4574 23.728 34.5927 23.406 34.5927 22.986C34.5927 22.594 34.4574 22.2953 34.1867 22.09C33.916 21.8753 33.538 21.768 33.0527 21.768ZM45.8233 23.042L40.6853 30H39.1733V20.2H40.8953V27.172L46.0333 20.2H47.5453V30H45.8233V23.042ZM52.5012 21.81H49.3232V20.2H57.4012V21.81H54.2232V30H52.5012V21.81ZM58.7894 30H57.0534L61.1974 20.172H62.7094L66.8534 30H65.0194L63.9974 27.494H59.8114L58.7894 30ZM63.3394 25.884L61.9114 22.398L60.4694 25.884H63.3394ZM74.5792 26.472V26.528L71.8772 29.692L70.7852 28.782L72.7172 26.5L70.7712 24.246L71.8212 23.308L74.5792 26.472ZM71.6392 26.472V26.528L68.9372 29.692L67.8452 28.782L69.7772 26.5L67.8312 24.246L68.8812 23.308L71.6392 26.472ZM79.9757 29.986V20.228C80.9837 20.1813 81.9263 20.158 82.8037 20.158C83.8863 20.158 84.6937 20.3727 85.2257 20.802C85.7577 21.2313 86.0237 21.824 86.0237 22.58C86.0237 23.6347 85.557 24.3767 84.6237 24.806V24.834C85.1557 24.974 85.5757 25.24 85.8837 25.632C86.1917 26.0147 86.3457 26.5093 86.3457 27.116C86.3457 28.068 86.019 28.796 85.3657 29.3C84.7123 29.804 83.8257 30.056 82.7057 30.056C81.5857 30.056 80.6757 30.0327 79.9757 29.986ZM82.9157 25.786H81.6977V28.376C82.1363 28.4227 82.5143 28.446 82.8317 28.446C84.0263 28.446 84.6237 27.9747 84.6237 27.032C84.6237 26.6213 84.4743 26.3133 84.1757 26.108C83.877 25.8933 83.457 25.786 82.9157 25.786ZM82.7757 21.768C82.365 21.768 82.0057 21.782 81.6977 21.81V24.288H82.8597C83.2983 24.288 83.6483 24.176 83.9097 23.952C84.1803 23.728 84.3157 23.406 84.3157 22.986C84.3157 22.594 84.1803 22.2953 83.9097 22.09C83.639 21.8753 83.261 21.768 82.7757 21.768ZM99.9551 30H98.2331V21.81H93.8651V30H92.1431V20.2H99.9551V30ZM108.76 30H102.95V20.2H108.62V21.81H104.672V24.246H108.2V25.856H104.672V28.39H108.76V30ZM113.243 21.81H110.065V20.2H118.143V21.81H114.965V30H113.243V21.81ZM125.727 30H119.917V20.2H125.587V21.81H121.639V24.246H125.167V25.856H121.639V28.39H125.727V30ZM129.971 26.458V30H128.249V20.2C128.66 20.2 129.103 20.1953 129.579 20.186C130.065 20.1767 130.55 20.172 131.035 20.172C131.726 20.172 132.323 20.2607 132.827 20.438C133.341 20.606 133.737 20.844 134.017 21.152C134.297 21.4507 134.503 21.782 134.633 22.146C134.764 22.5007 134.829 22.8927 134.829 23.322C134.829 24.2087 134.512 24.96 133.877 25.576C133.252 26.192 132.375 26.5 131.245 26.5C130.676 26.5 130.251 26.486 129.971 26.458ZM131.203 21.782L129.971 21.81V24.82C130.466 24.8667 130.872 24.89 131.189 24.89C131.74 24.89 132.179 24.7547 132.505 24.484C132.841 24.2133 133.009 23.8213 133.009 23.308C133.009 22.2907 132.407 21.782 131.203 21.782ZM137.102 30V20.2H142.828V21.81H138.824V23.994C139.206 23.938 139.645 23.91 140.14 23.91C141.157 23.91 141.96 24.176 142.548 24.708C143.136 25.24 143.43 25.9587 143.43 26.864C143.43 27.8813 143.098 28.67 142.436 29.23C141.782 29.7807 140.854 30.056 139.65 30.056C139.426 30.056 138.931 30.0467 138.166 30.028C138.016 30.028 137.858 30.0233 137.69 30.014C137.522 30.014 137.391 30.0093 137.298 30C137.214 30 137.148 30 137.102 30ZM140 25.52C139.645 25.52 139.253 25.548 138.824 25.604V28.39C139.281 28.4273 139.645 28.446 139.916 28.446C141.12 28.446 141.722 27.9607 141.722 26.99C141.722 26.5327 141.577 26.1733 141.288 25.912C140.998 25.6507 140.569 25.52 140 25.52ZM152.281 20.2H154.017L150.685 27.718C150.34 28.502 149.953 29.0807 149.523 29.454C149.103 29.818 148.604 30 148.025 30C147.447 30 146.999 29.8693 146.681 29.608L147.283 28.152C147.526 28.3107 147.769 28.39 148.011 28.39C148.45 28.39 148.772 28.1613 148.977 27.704L149.117 27.368L144.791 20.2H146.737L149.943 25.674L152.281 20.2ZM157.54 26.458V30H155.818V20.2C156.229 20.2 156.672 20.1953 157.148 20.186C157.633 20.1767 158.119 20.172 158.604 20.172C159.295 20.172 159.892 20.2607 160.396 20.438C160.909 20.606 161.306 20.844 161.586 21.152C161.866 21.4507 162.071 21.782 162.202 22.146C162.333 22.5007 162.398 22.8927 162.398 23.322C162.398 24.2087 162.081 24.96 161.446 25.576C160.821 26.192 159.943 26.5 158.814 26.5C158.245 26.5 157.82 26.486 157.54 26.458ZM158.772 21.782L157.54 21.81V24.82C158.035 24.8667 158.441 24.89 158.758 24.89C159.309 24.89 159.747 24.7547 160.074 24.484C160.41 24.2133 160.578 23.8213 160.578 23.308C160.578 22.2907 159.976 21.782 158.772 21.782ZM166.392 30H164.67V20.2H170.2V21.81H166.392V30ZM177.856 30H172.046V20.2H177.716V21.81H173.768V24.246H177.296V25.856H173.768V28.39H177.856V30Z" fill="#EC1B2E"/>
</svg>
