<svg width="16" height="14" viewBox="0 0 16 14" fill="none" xmlns="http://www.w3.org/2000/svg">
<path fill-rule="evenodd" clip-rule="evenodd" d="M0.499789 6.99996C0.499789 7.2486 0.598561 7.48706 0.774376 7.66288C0.950191 7.83869 1.18865 7.93746 1.43729 7.93746H12.2992L8.27354 11.9612C8.18637 12.0484 8.11723 12.1519 8.07006 12.2657C8.02288 12.3796 7.99861 12.5017 7.99861 12.625C7.99861 12.7482 8.02288 12.8703 8.07006 12.9842C8.11723 13.0981 8.18637 13.2015 8.27354 13.2887C8.3607 13.3759 8.46418 13.445 8.57807 13.4922C8.69196 13.5394 8.81402 13.5636 8.93729 13.5636C9.06056 13.5636 9.18262 13.5394 9.29651 13.4922C9.41039 13.445 9.51387 13.3759 9.60104 13.2887L15.226 7.66371C15.3133 7.57663 15.3826 7.47317 15.4299 7.35928C15.4771 7.24538 15.5015 7.12328 15.5015 6.99996C15.5015 6.87665 15.4771 6.75455 15.4299 6.64065C15.3826 6.52675 15.3133 6.4233 15.226 6.33621L9.60104 0.711214C9.425 0.535176 9.18624 0.436279 8.93729 0.436279C8.68833 0.436279 8.44958 0.535176 8.27354 0.711214C8.0975 0.887251 7.99861 1.12601 7.99861 1.37496C7.99861 1.62392 8.0975 1.86268 8.27354 2.03871L12.2992 6.06246H1.43729C1.18865 6.06246 0.950191 6.16124 0.774376 6.33705C0.598561 6.51287 0.499789 6.75132 0.499789 6.99996Z" fill="white"/>
</svg>
