<svg width="70" height="70" viewBox="0 0 70 70" fill="none" xmlns="http://www.w3.org/2000/svg">
<rect width="70" height="70" fill="#EC1B2E"/>
<path fill-rule="evenodd" clip-rule="evenodd" d="M42.5002 35C42.5002 35.2486 42.4014 35.4871 42.2256 35.6629C42.0498 35.8387 41.8114 35.9375 41.5627 35.9375H30.7008L34.7265 39.9612C34.8136 40.0484 34.8828 40.1519 34.9299 40.2657C34.9771 40.3796 35.0014 40.5017 35.0014 40.625C35.0014 40.7482 34.9771 40.8703 34.9299 40.9842C34.8828 41.0981 34.8136 41.2015 34.7265 41.2887C34.6393 41.3759 34.5358 41.445 34.4219 41.4922C34.308 41.5394 34.186 41.5636 34.0627 41.5636C33.9394 41.5636 33.8174 41.5394 33.7035 41.4922C33.5896 41.445 33.4861 41.3759 33.399 41.2887L27.774 35.6637C27.6867 35.5766 27.6174 35.4732 27.5701 35.3593C27.5229 35.2454 27.4985 35.1233 27.4985 35C27.4985 34.8767 27.5229 34.7545 27.5701 34.6407C27.6174 34.5268 27.6867 34.4233 27.774 34.3362L33.399 28.7112C33.575 28.5352 33.8138 28.4363 34.0627 28.4363C34.3117 28.4363 34.5504 28.5352 34.7265 28.7112C34.9025 28.8873 35.0014 29.126 35.0014 29.375C35.0014 29.6239 34.9025 29.8627 34.7265 30.0387L30.7008 34.0625H41.5627C41.8114 34.0625 42.0498 34.1612 42.2256 34.3371C42.4014 34.5129 42.5002 34.7513 42.5002 35Z" fill="white"/>
</svg>
