<svg width="70" height="70" viewBox="0 0 70 70" fill="none" xmlns="http://www.w3.org/2000/svg">
<rect width="70" height="70" transform="matrix(-1 0 0 1 70 0)" fill="#EC1B2E"/>
<path fill-rule="evenodd" clip-rule="evenodd" d="M27.4998 35C27.4998 35.2486 27.5986 35.4871 27.7744 35.6629C27.9502 35.8387 28.1886 35.9375 28.4373 35.9375H39.2992L35.2735 39.9612C35.1864 40.0484 35.1172 40.1519 35.0701 40.2657C35.0229 40.3796 34.9986 40.5017 34.9986 40.625C34.9986 40.7482 35.0229 40.8703 35.0701 40.9842C35.1172 41.0981 35.1864 41.2015 35.2735 41.2887C35.3607 41.3759 35.4642 41.445 35.5781 41.4922C35.692 41.5394 35.814 41.5636 35.9373 41.5636C36.0606 41.5636 36.1826 41.5394 36.2965 41.4922C36.4104 41.445 36.5139 41.3759 36.601 41.2887L42.226 35.6637C42.3133 35.5766 42.3826 35.4732 42.4299 35.3593C42.4771 35.2454 42.5015 35.1233 42.5015 35C42.5015 34.8767 42.4771 34.7545 42.4299 34.6407C42.3826 34.5268 42.3133 34.4233 42.226 34.3362L36.601 28.7112C36.425 28.5352 36.1862 28.4363 35.9373 28.4363C35.6883 28.4363 35.4496 28.5352 35.2735 28.7112C35.0975 28.8873 34.9986 29.126 34.9986 29.375C34.9986 29.6239 35.0975 29.8627 35.2735 30.0387L39.2992 34.0625H28.4373C28.1886 34.0625 27.9502 34.1612 27.7744 34.3371C27.5986 34.5129 27.4998 34.7513 27.4998 35Z" fill="white"/>
</svg>
