<svg width="30" height="18" viewBox="0 0 30 18" fill="none" xmlns="http://www.w3.org/2000/svg">
<path fill-rule="evenodd" clip-rule="evenodd" d="M26.7031 12.4468C26.7031 12.4468 29.1286 14.8423 29.7286 15.9508C29.7403 15.9668 29.7494 15.9845 29.7556 16.0033C30.0001 16.4128 30.0601 16.7338 29.9401 16.9708C29.7376 17.3623 29.0521 17.5588 28.8196 17.5753H24.5326C24.2341 17.5753 23.6131 17.4973 22.8571 16.9753C22.2796 16.5718 21.7051 15.9073 21.1486 15.2578C20.3176 14.2933 19.5991 13.4563 18.8716 13.4563C18.7798 13.4561 18.6885 13.4713 18.6016 13.5013C18.0511 13.6753 17.3521 14.4598 17.3521 16.5493C17.3521 17.2033 16.8361 17.5753 16.4746 17.5753H14.5111C13.8421 17.5753 10.3591 17.3413 7.27064 14.0848C3.48614 10.0978 0.0871351 2.09982 0.0541351 2.02932C-0.157365 1.51182 0.286635 1.22982 0.766635 1.22982H5.09564C5.67614 1.22982 5.86514 1.58082 5.99714 1.89582C6.15014 2.25732 6.71714 3.70332 7.64714 5.32782C9.15314 7.97082 10.0786 9.04632 10.8181 9.04632C10.9571 9.04672 11.0937 9.01051 11.2141 8.94132C12.1801 8.41032 12.0001 4.96032 11.9551 4.24932C11.9551 4.11132 11.9536 2.70882 11.4586 2.03082C11.1046 1.54482 10.5016 1.35582 10.1371 1.28682C10.2346 1.14582 10.4416 0.929816 10.7071 0.802316C11.3686 0.472316 12.5641 0.424316 13.7506 0.424316H14.4091C15.6961 0.442316 16.0291 0.524816 16.4971 0.643316C17.4391 0.868316 17.4571 1.47882 17.3746 3.55782C17.3506 4.15182 17.3251 4.82082 17.3251 5.60832C17.3251 5.77632 17.3176 5.96382 17.3176 6.15432C17.2891 7.22082 17.2516 8.42232 18.0046 8.91582C18.1023 8.97666 18.2151 9.00888 18.3301 9.00882C18.5911 9.00882 19.3726 9.00882 21.4921 5.37132C22.4221 3.76482 23.1421 1.87032 23.1916 1.72782C23.2336 1.64832 23.3596 1.42482 23.5126 1.33482C23.6215 1.27691 23.7434 1.24798 23.8666 1.25082H28.9591C29.5141 1.25082 29.8906 1.33482 29.9641 1.54482C30.0871 1.88532 29.9401 2.92482 27.6151 6.06882C27.2236 6.59232 26.8801 7.04532 26.5786 7.44132C24.4711 10.2073 24.4711 10.3468 26.7031 12.4468V12.4468Z" fill="#EC1B2E"/>
</svg>
