<svg width="30" height="22" viewBox="0 0 30 22" fill="none" xmlns="http://www.w3.org/2000/svg">
<path d="M29.3748 4.1336C29.2049 3.52764 28.874 2.97903 28.4173 2.5461C27.9477 2.09986 27.372 1.78065 26.7448 1.6186C24.3973 0.999851 14.9923 0.999851 14.9923 0.999851C11.0715 0.955242 7.15158 1.15144 3.2548 1.58735C2.62753 1.76137 2.053 2.08771 1.58229 2.53735C1.11979 2.98235 0.784795 3.5311 0.609795 4.13235C0.189411 6.39703 -0.0148401 8.69653 -0.000205083 10.9999C-0.0152051 13.3011 0.188545 15.5999 0.609795 17.8674C0.781045 18.4661 1.11479 19.0124 1.57854 19.4536C2.04229 19.8949 2.6198 20.2136 3.2548 20.3824C5.63355 20.9999 14.9923 20.9999 14.9923 20.9999C18.9181 21.0445 22.843 20.8483 26.7448 20.4124C27.372 20.2503 27.9477 19.9311 28.4173 19.4849C28.8739 19.052 29.2044 18.5033 29.3735 17.8974C29.8049 15.6335 30.0146 13.3331 29.9998 11.0286C30.0322 8.71436 29.8228 6.40306 29.3748 4.13235V4.1336ZM12.0023 15.2799V6.7211L19.8273 11.0011L12.0023 15.2799Z" fill="#333333"/>
</svg>
